<svg xmlns="http://www.w3.org/2000/svg" viewBox="0 0 400 300" width="406" height="306" class="illustration styles_illustrationTablet__1DWOa"><g id="_122_project_presentation_flatline" data-name="#122_project_presentation_flatline"><path d="M126.18,118.25a5.13,5.13,0,0,1-5.11-4.86,5.12,5.12,0,1,1,10.23-.52h0a5.13,5.13,0,0,1-4.85,5.38Zm0-9.24H126a4.13,4.13,0,1,0,4.33,3.91h0a4.11,4.11,0,0,0-4.11-3.91Z" fill="#231f20"></path><path d="M94.05,134.86a11.17,11.17,0,0,1-9.6-4.9,19.26,19.26,0,0,1-2.52-7.65,65.91,65.91,0,0,1-.68-14.1c.22-3.7-.76-8.54,1.39-11.77a6,6,0,0,1,4.91-2.55,1.9,1.9,0,0,1,.06-1.2,9.62,9.62,0,0,1,5.86-4.88c6.22-2.1,13.65-1.41,19.92.08,5.91,1.4,13.14,5.68,12.73,12.74-.15,2.55-2,5.12-4.54,5.36-.91,7.6-4.59,12.94-9.27,18.65a30.25,30.25,0,0,1-11.79,8.94A17,17,0,0,1,94.05,134.86Z" fill="#fff"></path><path d="M94.18,135.36h-.13a11.65,11.65,0,0,1-10-5.12,20,20,0,0,1-2.59-7.85,66.26,66.26,0,0,1-.69-14.21c.06-1,0-2.07,0-3.21-.08-3-.17-6.33,1.47-8.8A6.21,6.21,0,0,1,87,93.44a2.29,2.29,0,0,1,.17-1,10.08,10.08,0,0,1,6.16-5.15c6.8-2.3,14.73-1.24,20.2.06,6.81,1.62,13.51,6.35,13.11,13.26-.15,2.52-1.89,5.28-4.59,5.77-1,7.86-5,13.25-9.33,18.52a30.76,30.76,0,0,1-12,9.09A17.35,17.35,0,0,1,94.18,135.36ZM102.34,87a27.37,27.37,0,0,0-8.71,1.29,9.12,9.12,0,0,0-5.56,4.61,1.35,1.35,0,0,0,0,.87.51.51,0,0,1-.45.63,5.44,5.44,0,0,0-4.53,2.33c-1.46,2.21-1.38,5.27-1.3,8.22,0,1.16.06,2.26,0,3.3a64.86,64.86,0,0,0,.68,14,19,19,0,0,0,2.44,7.46,10.66,10.66,0,0,0,9.19,4.67h0a16.6,16.6,0,0,0,6.27-1.24,29.84,29.84,0,0,0,11.6-8.8c5.16-6.3,8.31-11.33,9.16-18.39a.51.51,0,0,1,.45-.44c2.36-.22,3.95-2.71,4.08-4.88.42-7.25-7.56-11.1-12.35-12.24A48.2,48.2,0,0,0,102.34,87Z" fill="#231f20"></path><path d="M124.16,116.83s5.83,8.57,4.67,10.38-5.1.67-5.1.67" fill="#fff"></path><path d="M126.21,128.73a10.25,10.25,0,0,1-2.62-.37.5.5,0,0,1,.27-1c1,.29,3.76.76,4.55-.46.61-.94-2-5.84-4.66-9.83a.49.49,0,0,1,.13-.69.5.5,0,0,1,.7.13c1.41,2.08,5.91,9,4.67,10.93A3.46,3.46,0,0,1,126.21,128.73Z" fill="#231f20"></path><path d="M122.79,105.42c3.68,2.93,2.71,9.22,2.73,13.3q0,8.61-.31,17.22c-.14,3.64-9.57,3.84-11.24,2.78l1.77,9.59L94.05,146V134.86s8.75-1.06,12.33-8.52,2.86-23.57,2.86-23.57S119.2,102.57,122.79,105.42Z" fill="#fff"></path><path d="M115.74,148.81h0L94,146.47a.52.52,0,0,1-.45-.5V134.86a.51.51,0,0,1,.44-.5c.09,0,8.52-1.12,11.94-8.24s2.81-23.17,2.81-23.33a.5.5,0,0,1,.49-.52c.41,0,10.19-.17,13.87,2.76,3.26,2.59,3.09,7.51,3,11.47,0,.79,0,1.53,0,2.22,0,5.71-.07,11.52-.31,17.24a3.09,3.09,0,0,1-2,2.6c-2.48,1.3-7,1.46-9.13.93l1.61,8.73a.48.48,0,0,1-.12.43A.49.49,0,0,1,115.74,148.81Zm-21.19-3.29,20.58,2.22-1.66-8.93a.51.51,0,0,1,.22-.51.5.5,0,0,1,.54,0c1.09.7,6.37.79,9.06-.61.92-.48,1.4-1.08,1.42-1.76.24-5.71.34-11.5.31-17.2,0-.7,0-1.45,0-2.25.13-3.73.28-8.38-2.58-10.65h0c-3-2.35-10.67-2.54-12.72-2.55.09,2.87.35,16.46-2.93,23.28S96.42,135,94.55,135.29Z" fill="#231f20"></path><path d="M100.68,121.11h-.11a.5.5,0,0,1-.38-.6c.68-2.91,1.26-3,1.5-3,.48-.06,19.2-3.36,29-5.09a.49.49,0,0,1,.58.4.49.49,0,0,1-.4.58c-1.13.2-27,4.76-29,5.09a9.29,9.29,0,0,0-.76,2.26A.49.49,0,0,1,100.68,121.11Zm1.14-2.63Z" fill="#231f20"></path><path d="M113.2,120.66a7.76,7.76,0,0,0-1.66-3.92,11.24,11.24,0,0,0-2.11-2.58,3.78,3.78,0,0,0-3.11-.91,3.55,3.55,0,0,0-2.23,1.82,6.53,6.53,0,0,0-.68,2.85,12.33,12.33,0,0,0,5.83,10.86l-.32-.34" fill="#fff"></path><path d="M109.23,129.27a.45.45,0,0,1-.25-.07,12.9,12.9,0,0,1-6.07-11.3,7,7,0,0,1,.74-3.07,3.94,3.94,0,0,1,2.56-2.06,4.2,4.2,0,0,1,3.53,1,11.86,11.86,0,0,1,2.22,2.69,8.34,8.34,0,0,1,1.74,4.18.5.5,0,0,1-.49.52.52.52,0,0,1-.51-.49,7.5,7.5,0,0,0-1.58-3.66,10.66,10.66,0,0,0-2-2.46,3.29,3.29,0,0,0-2.68-.81,3,3,0,0,0-1.9,1.56,6.15,6.15,0,0,0-.62,2.64,11.89,11.89,0,0,0,5,10,.54.54,0,0,1,.41.15l.3.33a.49.49,0,0,1,0,.66A.52.52,0,0,1,109.23,129.27Z" fill="#231f20"></path><ellipse cx="122.41" cy="112.39" rx="0.81" ry="2.05" transform="translate(-7.28 8.48) rotate(-3.85)" fill="#231f20"></ellipse><path d="M89.33,150.28l1.53-7.87,27.86,1.7,1.74,5.68S105.17,157.67,89.33,150.28Z" fill="#fff"></path><path d="M103.79,153.92a34.44,34.44,0,0,1-14.68-3.19.52.52,0,0,1-.28-.55l1.54-7.87a.51.51,0,0,1,.52-.4l27.86,1.7a.49.49,0,0,1,.45.35l1.74,5.68a.49.49,0,0,1-.25.59A40.89,40.89,0,0,1,103.79,153.92ZM89.89,150c14,6.31,27.56.64,30-.47l-1.52-4.93-27.07-1.66Z" fill="#231f20"></path><path d="M125.42,128.78s-5.34.36-6,1.17a12.92,12.92,0,0,0-1.26,3.15l6.83-1.17Z" fill="#231f20"></path><path d="M282.45,127.81h49.91a25.55,25.55,0,0,1,25.33,28.92l-8.06,60.6H248.16l9-67.34A25.54,25.54,0,0,1,282.45,127.81Z" fill="#231f20"></path><path d="M218.61,153.12s-13-19.34-12.76-14.85a23,23,0,0,0,2.18,8.27s-14.94-6.61-15.88-3.54,10.39,11,11.34,12.22,4.54,7.15,4.54,7.15" fill="#fff"></path><path d="M208,162.87a.5.5,0,0,1-.43-.24c0-.06-3.59-5.9-4.51-7.11a29.55,29.55,0,0,0-2.36-2c-5.19-4.24-9.8-8.24-9.06-10.64a1.45,1.45,0,0,1,.84-.91c2.59-1.18,11.23,2.24,14.54,3.63a23,23,0,0,1-1.7-7.27c0-.79.29-1.07.57-1.16,1.82-.62,9,9.57,13.11,15.7a.5.5,0,0,1-.14.69.49.49,0,0,1-.69-.13c-4.77-7.09-10.34-14.49-11.85-15.24v.08a22.81,22.81,0,0,0,2.12,8.07.48.48,0,0,1-.08.57.49.49,0,0,1-.56.12c-3.39-1.5-12.67-5.17-14.91-4.15-.21.1-.27.21-.29.29-.61,2,5.7,7.1,8.73,9.58a20.93,20.93,0,0,1,2.53,2.2c1,1.25,4.42,7,4.57,7.19a.5.5,0,0,1-.17.69A.48.48,0,0,1,208,162.87ZM206.37,138Z" fill="#231f20"></path><path d="M219.07,148.87S239.45,176.36,242,176c4.22-5.48,23.55-33.62,23.55-33.62,3.83-5,14.87-9,30.66-6.78,0,0,35,.71,41.83,11.86,3.91,6.41,7.22,23.51,9.38,48.78H223.46c-9.54-14.41-18.61-33.62-18.61-33.62Z" fill="#5dc8bf"></path><polygon points="290.7 140.83 291.48 188.65 312.52 138.21 290.7 140.83" fill="#231f20"></polygon><path d="M291.48,189.15h-.1a.48.48,0,0,1-.4-.48l-.78-47.82a.5.5,0,0,1,.44-.5l21.82-2.62a.51.51,0,0,1,.46.19.52.52,0,0,1,.06.5l-21,50.43A.5.5,0,0,1,291.48,189.15Zm-.27-47.88.73,45,19.79-47.44Z" fill="#231f20"></path><path d="M280.25,89c7.15-14.39,27.34-14.79,38.67-4.82,11.08,9.75,12,28.83,12,42.62-17.3,11.49-41.31,11.89-59,1C273.16,120.47,277.91,93.75,280.25,89Z" fill="#fff"></path><path d="M300.56,136.16a55.22,55.22,0,0,1-28.92-7.93.52.52,0,0,1-.23-.51c.59-3.44,5.83-33.75,8.4-38.92h0a21.27,21.27,0,0,1,15.41-11.44,28.71,28.71,0,0,1,24,6.47c10.74,9.44,12.16,27,12.14,43a.52.52,0,0,1-.22.42A55.63,55.63,0,0,1,300.56,136.16Zm-28.11-8.6c17.29,10.5,41,10.09,57.94-1,0-15.66-1.42-32.84-11.8-42a27.66,27.66,0,0,0-23.17-6.23A20.29,20.29,0,0,0,280.7,89.24C278.69,93.3,274.6,115.07,272.45,127.56Z" fill="#231f20"></path><path d="M285.85,110.91a8.52,8.52,0,0,0-1.69-3.1,2.89,2.89,0,0,0-3.23-.76,2.76,2.76,0,0,0-1.36,2.19,6.11,6.11,0,0,0,.44,2.63,10.57,10.57,0,0,0,2.56,4.22,6.13,6.13,0,0,0,4.51,1.76" fill="#fff"></path><path d="M286.73,118.36a6.64,6.64,0,0,1-4.5-1.91,11,11,0,0,1-2.69-4.41,6.7,6.7,0,0,1-.46-2.85,3.25,3.25,0,0,1,1.62-2.59,3.4,3.4,0,0,1,3.82.86,9,9,0,0,1,1.8,3.28.5.5,0,0,1-.3.64.49.49,0,0,1-.64-.29,8.31,8.31,0,0,0-1.57-2.93,2.44,2.44,0,0,0-2.65-.67,2.26,2.26,0,0,0-1.09,1.8,5.87,5.87,0,0,0,.41,2.42,10,10,0,0,0,2.44,4,5.54,5.54,0,0,0,4.12,1.63.5.5,0,0,1,.54.46.5.5,0,0,1-.46.54Z" fill="#231f20"></path><path d="M292.11,126.75l-1.41,14.08s.69,8,9.49,6.42a17.83,17.83,0,0,0,12.33-9l1.32-24.48c.05-1-3.74-5.34-2.73-14.27a21.86,21.86,0,0,1-15.31-8.71s-4.08,5-5.8,6.59a21.54,21.54,0,0,0-3.62,4c-2.71,4.1-3,9.75-2.35,14.43C284.59,119.63,287.22,126.85,292.11,126.75Z" fill="#fff"></path><path d="M298,148a7.66,7.66,0,0,1-4.77-1.48,8.52,8.52,0,0,1-3-5.61l1.35-13.64c-4.71-.41-7.41-7.12-8-11.44-.48-3.42-.81-9.88,2.43-14.78a21.4,21.4,0,0,1,3.7-4c1.66-1.51,5.7-6.49,5.74-6.54a.54.54,0,0,1,.42-.18.51.51,0,0,1,.39.22A21.5,21.5,0,0,0,311.16,99a.47.47,0,0,1,.34.19.47.47,0,0,1,.1.36,21.57,21.57,0,0,0,2.16,12.64,3.91,3.91,0,0,1,.58,1.61L313,138.24a.59.59,0,0,1,0,.19,18.15,18.15,0,0,1-12.7,9.31A13.3,13.3,0,0,1,298,148Zm-6.79-7.08a7.76,7.76,0,0,0,2.63,4.81c1.55,1.18,3.66,1.54,6.27,1.06A17.41,17.41,0,0,0,312,138.08l1.32-24.38a7,7,0,0,0-.48-1.12,22.29,22.29,0,0,1-2.3-12.69,22.38,22.38,0,0,1-14.79-8.32,79.92,79.92,0,0,1-5.43,6.14,21,21,0,0,0-3.54,3.85c-3.05,4.62-2.73,10.81-2.27,14.09.49,3.48,3,10.6,7.49,10.6h.09a.51.51,0,0,1,.37.16.52.52,0,0,1,.13.39l-1.41,14.08Z" fill="#231f20"></path><path d="M298,102.57s-5.16,6.34-4.2,7.62,4.06.78,4.06.78" fill="#fff"></path><path d="M296.52,111.57a3.92,3.92,0,0,1-3.12-1.08c-1.09-1.44,2.58-6.24,4.21-8.24a.5.5,0,0,1,.7-.07.49.49,0,0,1,.07.7c-2.54,3.13-4.54,6.46-4.19,7,.64.84,2.86.7,3.58.58a.51.51,0,0,1,.57.42.49.49,0,0,1-.41.57A9.6,9.6,0,0,1,296.52,111.57Z" fill="#231f20"></path><ellipse cx="291.48" cy="104.15" rx="1.47" ry="0.78" transform="translate(149.61 379.25) rotate(-82.38)" fill="#231f20"></ellipse><ellipse cx="304.43" cy="103.83" rx="1.47" ry="0.78" transform="translate(197.06 407.03) rotate(-89.33)" fill="#231f20"></ellipse><path d="M309.77,108.34a9.83,9.83,0,0,1,1.58-3.35,4.44,4.44,0,0,1,3.65-1.85,2.89,2.89,0,0,1,2.23,1.19,4,4,0,0,1,.57,1.68c.46,3.14-.58,7.21-3.53,8.83a3.09,3.09,0,0,1-3.32,0" fill="#fff"></path><path d="M312.41,115.84a2.78,2.78,0,0,1-1.76-.56.5.5,0,1,1,.6-.79,2.65,2.65,0,0,0,2.78-.09c2.74-1.5,3.72-5.32,3.28-8.32a3.76,3.76,0,0,0-.49-1.47,2.4,2.4,0,0,0-1.84-1,4,4,0,0,0-3.24,1.66,9.53,9.53,0,0,0-1.49,3.19.5.5,0,0,1-.62.33.49.49,0,0,1-.34-.62,10.63,10.63,0,0,1,1.66-3.52,4.94,4.94,0,0,1,4.08-2,3.39,3.39,0,0,1,2.62,1.41,4.59,4.59,0,0,1,.65,1.89c.49,3.34-.65,7.62-3.79,9.34A4.46,4.46,0,0,1,312.41,115.84Z" fill="#231f20"></path><path d="M265.53,192.15h0a.5.5,0,0,1-.49-.5c0-1,5.73-31.66,6.38-35.15a.5.5,0,0,1,.59-.4.51.51,0,0,1,.4.59c-2.54,13.55-6.34,34.05-6.37,35A.51.51,0,0,1,265.53,192.15Z" fill="#231f20"></path><path d="M322.24,194.38a.5.5,0,0,1-.5-.5V155.22a.5.5,0,0,1,1,0v38.66A.5.5,0,0,1,322.24,194.38Z" fill="#231f20"></path><path d="M303,112.79l-11.5,1.09s0,8.2,4.87,7.66S302.62,117.84,303,112.79Z" fill="#fff"></path><path d="M295.9,122.07a3.67,3.67,0,0,1-2.51-.95c-2.37-2.11-2.41-7-2.41-7.24a.49.49,0,0,1,.45-.5l11.5-1.09a.52.52,0,0,1,.55.54c-.32,4.41-1.39,8.57-7.08,9.21ZM292,114.33c.07,1.22.41,4.57,2.07,6a2.69,2.69,0,0,0,2.23.67c3.91-.43,5.67-2.61,6.14-7.69Z" fill="#231f20"></path><path d="M292.11,126.75a33.6,33.6,0,0,0,13.44-2.5s-7.93,9.58-14.07,13.12Z" fill="#231f20"></path><path d="M291.48,137.87a.48.48,0,0,1-.5-.53l.63-10.62a.51.51,0,0,1,.53-.47,33.39,33.39,0,0,0,13.21-2.46.5.5,0,0,1,.59.78c-.33.39-8.06,9.69-14.21,13.24A.57.57,0,0,1,291.48,137.87Zm1.1-10.61-.55,9.19c4.37-2.82,9.47-8.33,11.83-11A34.6,34.6,0,0,1,292.58,127.26Z" fill="#231f20"></path><path d="M286,169.26a.51.51,0,0,1-.36-.15l-9.2-9.67a.49.49,0,0,1-.13-.4.47.47,0,0,1,.21-.36l8.62-5.9-8.63-6.41a.49.49,0,0,1,0-.81l10.31-7.11a.5.5,0,1,1,.56.82L277.63,146l8.64,6.42a.46.46,0,0,1,.2.41.49.49,0,0,1-.21.4l-8.72,6,8.8,9.25a.49.49,0,0,1,0,.7A.47.47,0,0,1,286,169.26Z" fill="#231f20"></path><path d="M303.56,169.94a.51.51,0,0,1-.43-.25.5.5,0,0,1,.18-.68l13.55-8.08-7.47-8.48a.52.52,0,0,1-.11-.43.46.46,0,0,1,.28-.35l9.37-4.38-5.46-5.93a.5.5,0,1,1,.73-.67l5.93,6.43a.49.49,0,0,1,.13.43.54.54,0,0,1-.28.36l-9.4,4.38,7.43,8.43a.5.5,0,0,1,.12.41.54.54,0,0,1-.24.35l-14.07,8.39A.48.48,0,0,1,303.56,169.94Z" fill="#231f20"></path><rect x="112.52" y="193.88" width="248.31" height="51.09" fill="#fff"></rect><path d="M360.83,245.43H112.52a.46.46,0,0,1-.46-.45v-51.1a.47.47,0,0,1,.46-.46H360.83a.46.46,0,0,1,.45.46V245A.45.45,0,0,1,360.83,245.43ZM113,244.52H360.37V194.34H113Z" fill="#231f20"></path><rect x="112.52" y="244.98" width="248.31" height="10.16" fill="#fff"></rect><path d="M360.83,255.6H112.52a.47.47,0,0,1-.46-.46V245a.46.46,0,0,1,.46-.46H360.83a.45.45,0,0,1,.45.46v10.16A.46.46,0,0,1,360.83,255.6ZM113,254.68H360.37v-9.25H113Z" fill="#231f20"></path><path d="M197.91,219.13s19.33-9.21,20.65-9.57c2.35-.63-5.05-8.11-7.39-7.93s-9.73,2.34-9.73,2.34-.92-2.34-2.18-2.34-7.57,5.66-7.57,5.66Z" fill="#fff"></path><path d="M197.91,219.63a.5.5,0,0,1-.44-.27l-6.23-11.83a.52.52,0,0,1,.11-.61c1.52-1.36,6.56-5.79,7.91-5.79s2.1,1.48,2.46,2.24a76.87,76.87,0,0,1,9.41-2.24c2.32-.17,8,5.28,8.36,7.56a1.09,1.09,0,0,1-.8,1.36c-.94.25-12.81,5.84-20.57,9.53A.54.54,0,0,1,197.91,219.63Zm-5.6-12.22,5.82,11.06c3.33-1.59,19-9.05,20.3-9.39.08,0,.19-.32-.4-1.27-1.57-2.49-5.52-5.81-6.82-5.69-2.27.18-9.55,2.31-9.63,2.33a.49.49,0,0,1-.6-.3c-.26-.66-1-2-1.72-2S195.19,204.85,192.31,207.41Z" fill="#231f20"></path><path d="M184.32,207.23c.72,0,7.44-1.86,7.44-1.86l7.89,14.49L190.27,224Z" fill="#231f20"></path><path d="M54.88,248.72s-4.06-85.85,17.86-97.5c6.82-3.63,61.84-6.1,74.83,4.83s14.07,55.39,14.07,55.39l24.15-5.72,9.67,17.52s-35.59,16.36-42.39,19.53C141.43,248.18,54.88,248.72,54.88,248.72Z" fill="#5dc8bf"></path><path d="M128.58,211.65h0a.51.51,0,0,1-.46-.55l4.46-48.77a.5.5,0,0,1,.54-.46.5.5,0,0,1,.45.55l-4.45,48.78A.49.49,0,0,1,128.58,211.65Z" fill="#231f20"></path><path d="M114.65,165.61H64.73A25.55,25.55,0,0,0,39.4,194.53l8.06,60.61H148.93l-9-67.34A25.56,25.56,0,0,0,114.65,165.61Z" fill="#231f20"></path><path d="M167,226.51c3.22,0,3.22-5,0-5s-3.22,5,0,5Z" fill="#5dc8bf"></path><path d="M167.72,226.51c3.22,0,3.22-5,0-5s-3.22,5,0,5Z" fill="#5dc8bf"></path><rect x="304.35" y="202.53" width="34.54" height="31.94" fill="#fff"></rect><path d="M338.89,235H304.35a.5.5,0,0,1-.5-.5V202.53a.5.5,0,0,1,.5-.5h34.54a.5.5,0,0,1,.5.5v31.94A.5.5,0,0,1,338.89,235Zm-34-1h33.54V203H304.85Z" fill="#d1d3d4"></path><rect x="300.64" y="200.67" width="34.54" height="31.94" fill="#fff"></rect><path d="M335.18,233.11H300.64a.5.5,0,0,1-.5-.5V200.67a.5.5,0,0,1,.5-.5h34.54a.5.5,0,0,1,.5.5v31.94A.5.5,0,0,1,335.18,233.11Zm-34-1h33.54V201.17H301.14Z" fill="#d1d3d4"></path><rect x="145.81" y="59.08" width="107.92" height="72.71" rx="3.68" fill="#fff"></rect><path d="M250,132.29H149.49a4.18,4.18,0,0,1-4.18-4.18V62.76a4.18,4.18,0,0,1,4.18-4.18H250a4.18,4.18,0,0,1,4.18,4.18v65.35A4.18,4.18,0,0,1,250,132.29ZM149.49,59.58a3.18,3.18,0,0,0-3.18,3.18v65.35a3.18,3.18,0,0,0,3.18,3.18H250a3.18,3.18,0,0,0,3.18-3.18V62.76A3.18,3.18,0,0,0,250,59.58Z" fill="#d1d3d4"></path><rect x="150.95" y="64.68" width="97.64" height="61.51" fill="#fff"></rect><path d="M248.59,126.69H151a.5.5,0,0,1-.5-.5V64.68a.5.5,0,0,1,.5-.5h97.64a.5.5,0,0,1,.5.5v61.51A.5.5,0,0,1,248.59,126.69Zm-97.14-1h96.64V65.18H151.45Z" fill="#d1d3d4"></path><circle cx="166.05" cy="89.37" r="3.18" fill="#fff"></circle><path d="M166.05,93.05a3.68,3.68,0,1,1,3.68-3.68A3.68,3.68,0,0,1,166.05,93.05Zm0-6.36a2.68,2.68,0,1,0,2.68,2.68A2.68,2.68,0,0,0,166.05,86.69Z" fill="#d1d3d4"></path><path d="M217.62,89.87H175.94a.5.5,0,0,1,0-1h41.68a.5.5,0,0,1,0,1Z" fill="#d1d3d4"></path><circle cx="166.05" cy="100.63" r="3.18" fill="#fff"></circle><path d="M166.05,104.3a3.68,3.68,0,1,1,3.68-3.67A3.68,3.68,0,0,1,166.05,104.3Zm0-6.35a2.68,2.68,0,1,0,2.68,2.68A2.68,2.68,0,0,0,166.05,98Z" fill="#d1d3d4"></path><path d="M236.56,101.13H175.94a.51.51,0,0,1-.5-.5.5.5,0,0,1,.5-.5h60.62a.5.5,0,0,1,.5.5A.51.51,0,0,1,236.56,101.13Z" fill="#d1d3d4"></path><circle cx="166.05" cy="111.88" r="3.18" fill="#fff"></circle><path d="M166.05,115.56a3.68,3.68,0,1,1,3.68-3.68A3.68,3.68,0,0,1,166.05,115.56Zm0-6.35a2.68,2.68,0,1,0,2.68,2.67A2.68,2.68,0,0,0,166.05,109.21Z" fill="#d1d3d4"></path><path d="M229.79,112.38H175.94a.5.5,0,0,1-.5-.5.51.51,0,0,1,.5-.5h53.85a.5.5,0,0,1,.5.5A.5.5,0,0,1,229.79,112.38Z" fill="#d1d3d4"></path><circle cx="151.97" cy="128.89" r="0.95" fill="#d1d3d4"></circle><circle cx="155.59" cy="128.89" r="0.95" fill="#d1d3d4"></circle><rect x="162.88" y="72.68" width="30.24" height="4.69" fill="#d1d3d4"></rect></g></svg>