<svg xmlns="http://www.w3.org/2000/svg" viewBox="0 0 400 300" width="406" height="306" class="illustration styles_illustrationTablet__1DWOa"><g id="_149_production_outline" data-name="#149_production_outline"><rect x="247.26" y="121.67" width="36.85" height="34.91" fill="#ffbc0e"></rect><path d="M284.1,157.58H247.26a1,1,0,0,1-1-1V121.67a1,1,0,0,1,1-1H284.1a1,1,0,0,1,1,1v34.91A1,1,0,0,1,284.1,157.58Zm-35.84-2H283.1V122.67H248.26Z" fill="#093f68"></path><rect x="262.24" y="121.67" width="6.88" height="10.95" fill="#f56132"></rect><path d="M269.12,133.62h-6.88a1,1,0,0,1-1-1v-11a1,1,0,0,1,1-1h6.88a1,1,0,0,1,1,1v11A1,1,0,0,1,269.12,133.62Zm-5.88-2h4.88v-9h-4.88Z" fill="#093f68"></path><path d="M265.68,105.71a1,1,0,0,1-1-1V90.35a1,1,0,1,1,2,0v14.36A1,1,0,0,1,265.68,105.71Z" fill="#093f68"></path><path d="M288.31,133.62h-3.59a1,1,0,0,1,0-2h2.59V124a8.77,8.77,0,0,0-4.17-7.44l-17.46-10.68-17.46,10.68a8.77,8.77,0,0,0-4.17,7.44v7.62h2.58a1,1,0,0,1,0,2h-3.58a1,1,0,0,1-1-1V124a10.81,10.81,0,0,1,5.13-9.15l18-11a1,1,0,0,1,1,0l18,11a10.81,10.81,0,0,1,5.13,9.15v8.62A1,1,0,0,1,288.31,133.62Z" fill="#093f68"></path><rect x="256.67" y="87.41" width="18.01" height="4.93" fill="#093f68"></rect><path d="M274.68,93.33h-18a1,1,0,0,1-1-1V87.41a1,1,0,0,1,1-1h18a1,1,0,0,1,1,1v4.92A1,1,0,0,1,274.68,93.33Zm-17-2h16V88.41h-16Z" fill="#093f68"></path><rect x="119.79" y="189.29" width="189.21" height="32.17" rx="13.91" fill="#5dc8bf"></rect><path d="M295.09,222.46H133.7a14.93,14.93,0,0,1-14.91-14.91V203.2a14.93,14.93,0,0,1,14.91-14.91H295.09A14.93,14.93,0,0,1,310,203.2v4.35A14.93,14.93,0,0,1,295.09,222.46ZM133.7,190.29a12.92,12.92,0,0,0-12.91,12.91v4.35a12.92,12.92,0,0,0,12.91,12.91H295.09A12.92,12.92,0,0,0,308,207.55V203.2a12.92,12.92,0,0,0-12.91-12.91Z" fill="#093f68"></path><circle cx="154.37" cy="205.37" r="8.76" fill="#093f68"></circle><path d="M154.37,215.14a9.77,9.77,0,1,1,9.76-9.77A9.78,9.78,0,0,1,154.37,215.14Zm0-17.53a7.77,7.77,0,1,0,7.76,7.76A7.78,7.78,0,0,0,154.37,197.61Z" fill="#093f68"></path><circle cx="181.32" cy="205.37" r="8.76" fill="#093f68"></circle><path d="M181.32,215.14a9.77,9.77,0,1,1,9.76-9.77A9.78,9.78,0,0,1,181.32,215.14Zm0-17.53a7.77,7.77,0,1,0,7.76,7.76A7.78,7.78,0,0,0,181.32,197.61Z" fill="#093f68"></path><circle cx="208.27" cy="205.37" r="8.76" fill="#093f68"></circle><path d="M208.26,215.14a9.77,9.77,0,1,1,9.77-9.77A9.78,9.78,0,0,1,208.26,215.14Zm0-17.53a7.77,7.77,0,1,0,7.77,7.76A7.77,7.77,0,0,0,208.26,197.61Z" fill="#093f68"></path><circle cx="235.21" cy="205.37" r="8.76" fill="#093f68"></circle><path d="M235.21,215.14a9.77,9.77,0,1,1,9.77-9.77A9.78,9.78,0,0,1,235.21,215.14Zm0-17.53a7.77,7.77,0,1,0,7.77,7.76A7.77,7.77,0,0,0,235.21,197.61Z" fill="#093f68"></path><circle cx="262.16" cy="205.37" r="8.76" fill="#093f68"></circle><path d="M262.16,215.14a9.77,9.77,0,1,1,9.77-9.77A9.78,9.78,0,0,1,262.16,215.14Zm0-17.53a7.77,7.77,0,1,0,7.77,7.76A7.77,7.77,0,0,0,262.16,197.61Z" fill="#093f68"></path><circle cx="289.11" cy="205.37" r="8.76" fill="#093f68"></circle><path d="M289.11,215.14a9.77,9.77,0,1,1,9.77-9.77A9.78,9.78,0,0,1,289.11,215.14Zm0-17.53a7.77,7.77,0,1,0,7.77,7.76A7.77,7.77,0,0,0,289.11,197.61Z" fill="#093f68"></path><rect x="141.49" y="154.38" width="36.85" height="34.91" fill="#ffbc0e"></rect><path d="M178.34,190.29H141.49a1,1,0,0,1-1-1V154.38a1,1,0,0,1,1-1h36.85a1,1,0,0,1,1,1v34.91A1,1,0,0,1,178.34,190.29Zm-35.85-2h34.85V155.38H142.49Z" fill="#093f68"></path><rect x="156.48" y="154.38" width="6.88" height="10.95" fill="#f56132"></rect><path d="M163.36,166.32h-6.88a1,1,0,0,1-1-1V154.38a1,1,0,0,1,1-1h6.88a1,1,0,0,1,1,1v10.94A1,1,0,0,1,163.36,166.32Zm-5.88-2h4.88v-8.94h-4.88Z" fill="#093f68"></path><rect x="192.02" y="154.38" width="36.85" height="34.91" fill="#ffbc0e"></rect><path d="M228.87,190.29H192a1,1,0,0,1-1-1V154.38a1,1,0,0,1,1-1h36.85a1,1,0,0,1,1,1v34.91A1,1,0,0,1,228.87,190.29Zm-35.85-2h34.85V155.38H193Z" fill="#093f68"></path><rect x="207.01" y="154.38" width="6.88" height="10.95" fill="#f56132"></rect><path d="M213.89,166.32H207a1,1,0,0,1-1-1V154.38a1,1,0,0,1,1-1h6.88a1,1,0,0,1,1,1v10.94A1,1,0,0,1,213.89,166.32Zm-5.88-2h4.88v-8.94H208Z" fill="#093f68"></path><path d="M199,119.57H172.55a1,1,0,0,1,0-2H199a1,1,0,1,1,0,2Z" fill="#dfeaef"></path><path d="M193,126.7a1,1,0,0,1-.65-1.75l7.41-6.37-7.4-6.19a1,1,0,1,1,1.28-1.53l8.31,7a1,1,0,0,1,.36.76,1,1,0,0,1-.35.76l-8.31,7.13A1,1,0,0,1,193,126.7Z" fill="#dfeaef"></path><path d="M274,172.76H251.66a1,1,0,1,1,0-2H274a1,1,0,0,1,0,2Z" fill="#dfeaef"></path><path d="M268.89,178.77a1,1,0,0,1-.76-.34,1,1,0,0,1,.11-1.41l6.12-5.25-6.11-5.11a1,1,0,0,1,1.29-1.54l7,5.87a1,1,0,0,1,.36.76,1,1,0,0,1-.35.76l-7,6A.94.94,0,0,1,268.89,178.77Z" fill="#dfeaef"></path><path d="M304.56,78.54H91V221.46h42.7v-134H304.56a4.44,4.44,0,1,0,0-8.87Z" fill="#5dc8bf"></path><path d="M133.7,222.46H91a1,1,0,0,1-1-1V78.54a1,1,0,0,1,1-1H304.56a5.44,5.44,0,1,1,0,10.87H134.7V221.46A1,1,0,0,1,133.7,222.46Zm-41.7-2h40.7v-133a1,1,0,0,1,1-1H304.56a3.44,3.44,0,1,0,0-6.87H92Z" fill="#093f68"></path><path d="M106.21,157.11h12.28a5.72,5.72,0,0,1,5.72,5.72v58.62a0,0,0,0,1,0,0H100.49a0,0,0,0,1,0,0V162.84A5.72,5.72,0,0,1,106.21,157.11Z" fill="#5dc8bf"></path><path d="M124.21,222.46H100.49a1,1,0,0,1-1-1V162.84a6.73,6.73,0,0,1,6.72-6.73h12.28a6.73,6.73,0,0,1,6.72,6.73v58.62A1,1,0,0,1,124.21,222.46Zm-22.72-2h21.72V162.84a4.72,4.72,0,0,0-4.72-4.73H106.21a4.73,4.73,0,0,0-4.72,4.73Z" fill="#093f68"></path><rect x="106.99" y="167.73" width="10.86" height="10.86" fill="#70cc40"></rect><path d="M117.85,179.58H107a1,1,0,0,1-1-1V167.73a1,1,0,0,1,1-1h10.86a1,1,0,0,1,1,1v10.85A1,1,0,0,1,117.85,179.58Zm-9.86-2h8.86v-8.85H108Z" fill="#093f68"></path><rect x="106.99" y="183.54" width="10.86" height="10.86" fill="#f56132"></rect><path d="M117.85,195.4H107a1,1,0,0,1-1-1V183.54a1,1,0,0,1,1-1h10.86a1,1,0,0,1,1,1V194.4A1,1,0,0,1,117.85,195.4Zm-9.86-2h8.86v-8.86H108Z" fill="#093f68"></path><path d="M133.7,88.41H100.49a1,1,0,1,1,0-2H133.7a1,1,0,0,1,0,2Z" fill="#093f68"></path></g></svg>